HIERARCHY
ROOT root
{
	OFFSET	0	13.1	24.9
	CHANNELS 6  Xposition Yposition Zposition Xrotation Yrotation Zrotation
	JOINT spine_1
	{
		OFFSET	0	9.99999	0
		CHANNELS 3  Xrotation Yrotation Zrotation
		JOINT spine_2
		{
			OFFSET	0	112	-10
			CHANNELS 3  Xrotation Yrotation Zrotation
			JOINT spine_3
			{
				OFFSET	0	206.5	19.3
				CHANNELS 3  Xrotation Yrotation Zrotation
				JOINT spine_4
				{
					OFFSET	0	110.4	14.6
					CHANNELS 3  Xrotation Yrotation Zrotation
					JOINT neck_1
					{
						OFFSET	0	71.8	-50.3
						CHANNELS 3  Xrotation Yrotation Zrotation
						JOINT neck_2
						{
							OFFSET	0	86.2	-25.8
							CHANNELS 3  Xrotation Yrotation Zrotation
							JOINT head_ee
							{
								OFFSET	0	179.8	-8.7
								CHANNELS 3  Xrotation Yrotation Zrotation
								End Site
								{
									OFFSET	1	0	0
								}
							}
						}
					}
					JOINT left_clavicle
					{
						OFFSET	-43.2	22.4	-70.8
						CHANNELS 3  Xrotation Yrotation Zrotation
						JOINT left_shoulder
						{
							OFFSET	-93.9	-5.79999	48.7
							CHANNELS 3  Xrotation Yrotation Zrotation
							JOINT left_elbow
							{
								OFFSET	-291.4	-30.8	15.2
								CHANNELS 3  Xrotation Yrotation Zrotation
								JOINT left_lowarm_twist
								{
									OFFSET	-110.7	-3.89999	13.6
									CHANNELS 3  Xrotation Yrotation Zrotation
									JOINT left_hand
									{
										OFFSET	-110.7	-3.89999	13.6
										CHANNELS 3  Xrotation Yrotation Zrotation
										JOINT left_ee
										{
											OFFSET	-80.8	-5.10001	12.1
											CHANNELS 3  Xrotation Yrotation Zrotation
											End Site
											{
												OFFSET	1	0	0
											}
										}
									}
								}
							}
						}
					}
					JOINT right_clavicle
					{
						OFFSET	43.2	22.4	-70.8
						CHANNELS 3  Xrotation Yrotation Zrotation
						JOINT right_shoulder
						{
							OFFSET	93.9	-5.79999	48.7
							CHANNELS 3  Xrotation Yrotation Zrotation
							JOINT right_elbow
							{
								OFFSET	291.4	-30.8	15.2
								CHANNELS 3  Xrotation Yrotation Zrotation
								JOINT right_lowarm_twist
								{
									OFFSET	110.7	-3.89999	13.6
									CHANNELS 3  Xrotation Yrotation Zrotation
									JOINT right_hand
									{
										OFFSET	110.7	-3.89999	13.6
										CHANNELS 3  Xrotation Yrotation Zrotation
										JOINT right_ee
										{
											OFFSET	80.8	-5.10001	12.1
											CHANNELS 3  Xrotation Yrotation Zrotation
											End Site
											{
												OFFSET	1	0	0
											}
										}
									}
								}
							}
						}
					}
				}
			}
		}
	}
	JOINT left_hip
	{
		OFFSET	-82.8	-127.5	0.300001
		CHANNELS 3  Xrotation Yrotation Zrotation
		JOINT left_knee
		{
			OFFSET	-28.2	-396.7	2.2
			CHANNELS 3  Xrotation Yrotation Zrotation
			JOINT left_ankle
			{
				OFFSET	-11.7	-411.3	35.4
				CHANNELS 3  Xrotation Yrotation Zrotation
				JOINT left_toes
				{
					OFFSET	0	-60	-88.6
					CHANNELS 3  Xrotation Yrotation Zrotation
					JOINT left_foot_ee
					{
						OFFSET	-22.5	-16.5	-42.2
						CHANNELS 3  Xrotation Yrotation Zrotation
						End Site
						{
							OFFSET	1	0	0
						}
					}
				}
			}
		}
	}
	JOINT right_hip
	{
		OFFSET	82.8	-127.5	0.300001
		CHANNELS 3  Xrotation Yrotation Zrotation
		JOINT right_knee
		{
			OFFSET	28.2	-396.7	2.2
			CHANNELS 3  Xrotation Yrotation Zrotation
			JOINT right_ankle
			{
				OFFSET	11.7	-411.3	35.4
				CHANNELS 3  Xrotation Yrotation Zrotation
				JOINT right_toes
				{
					OFFSET	0	-60	-88.6
					CHANNELS 3  Xrotation Yrotation Zrotation
					JOINT right_foot_ee
					{
						OFFSET	22.5	-16.5	-42.2
						CHANNELS 3  Xrotation Yrotation Zrotation
						End Site
						{
							OFFSET	1	0	0
						}
					}
				}
			}
		}
	}
}
MOTION
Frames: 12
Frame Time: 0.02
2862.27 755.004 -1001.16 -15.2801 51.8642 16.1438 3.79193 0.11502 -0.0682261 3.79192 0.119128 -0.0607688 3.7918 0.126683 -0.0428449 3.79182 0.118327 -0.0623145 -10.1828 16.1014 -1.4572 -10.5517 31.3315 2.83551 -0.0 0.0 -0.0 1.57448 15.6536 4.33529 -29.2949 -22.6289 65.7338 0.390762 -10.9556 0.0374734 17.716 0.280419 -2.23669 0.43833 12.2955 7.85476 -0.0 0.0 -0.0 11.1165 17.3462 -22.0844 -8.59284 18.3375 -61.7713 1.48406 36.3196 -0.486805 37.7113 0.235603 4.72577 -0.543318 -7.47222 0.416929 0.0 0.0 0.0 24.3501 5.4395 -9.75398 -51.1591 -1.32461 7.4827 28.4968 20.9929 -3.8505 6.49912 -0.0 -0.0 -0.0 0.0 -0.0 19.9288 2.88868 -8.41337 -14.0229 -0.318948 -2.12301 6.57493 20.1623 1.07283 11.9215 -0.0 -0.0 0.0 0.0 0.0 
2834.63 753.785 -1013.97 -13.5628 51.9741 14.3684 3.67534 0.139642 -0.161454 3.67535 0.149633 -0.152241 3.67495 0.170397 -0.128577 3.67495 0.147953 -0.153874 -10.7135 16.3243 -1.03308 -11.158 31.5227 3.47506 -0.0 0.0 -0.0 1.33278 16.4503 4.01532 -30.0242 -22.3529 66.6107 0.36543 -10.261 0.0328099 17.6355 0.280719 -2.22641 0.413768 13.5564 8.18124 -0.0 0.0 -0.0 11.3498 17.3207 -22.6148 -7.52145 18.8649 -61.1417 1.56749 37.8263 -0.537104 37.5953 0.230134 4.71199 -0.143789 -5.79511 -1.47924 0.0 0.0 0.0 28.2444 2.90371 -9.82531 -49.7319 -1.1989 7.30239 28.9376 20.0202 -3.88442 5.93945 -0.0 -0.0 -0.0 0.0 -0.0 17.0498 2.11204 -7.84529 -14.3009 -0.319984 -2.16563 7.58444 20.4376 1.23613 12.4827 -0.0 -0.0 0.0 0.0 0.0 
2818.84 753.135 -1020.3 -14.6228 52.611 15.5713 3.81264 0.109131 -0.248237 3.81267 0.124706 -0.24079 3.81213 0.158239 -0.220208 3.81208 0.121476 -0.242435 -10.9357 16.3782 -1.03469 -11.4119 31.6461 3.55998 -0.0 0.0 -0.0 1.04179 16.1891 3.53728 -30.4894 -22.296 67.3793 0.360755 -10.1324 0.0319821 17.6486 0.280671 -2.22808 0.459511 14.4173 8.79663 -0.0 0.0 -0.0 11.37 17.4463 -22.6539 -6.67112 19.1112 -60.5333 1.63699 39.0361 -0.580302 38.1335 0.255758 4.77585 -0.275323 -5.11291 -0.33101 0.0 0.0 0.0 29.3401 1.70893 -9.78744 -49.8303 -1.20742 7.31492 27.2671 21.2762 -3.71232 5.22232 -0.0 -0.0 -0.0 0.0 -0.0 15.8392 2.59517 -8.11186 -13.9524 -0.318652 -2.11218 8.49507 20.9955 1.38708 12.7787 -0.0 -0.0 0.0 0.0 0.0 
2792.58 748.414 -1025.94 -13.1551 50.8268 13.6583 3.79006 0.382087 -0.189142 3.78999 0.393348 -0.164445 3.78889 0.413049 -0.105621 3.78909 0.391184 -0.16953 -10.9374 17.1807 -0.643042 -11.4637 32.9127 4.18639 -0.0 0.0 -0.0 0.583164 19.2854 3.1191 -33.9743 -23.3377 66.5003 0.493075 -13.7262 0.0593468 17.2082 0.28207 -2.17185 0.9615 12.7093 11.3627 -0.0 0.0 -0.0 11.5769 17.7303 -23.1093 -6.31094 18.5251 -60.0338 1.86228 42.6879 -0.727772 38.6998 0.28337 4.8428 -0.126186 -4.03359 -0.858034 0.0 0.0 0.0 33.256 0.555045 -10.495 -48.1319 -1.06339 7.09666 21.1192 22.1424 -2.97096 3.36897 -0.0 -0.0 -0.0 0.0 -0.0 10.6471 1.71315 -6.86283 -11.2016 -0.296732 -1.69074 13.0923 19.2904 2.06411 13.4722 -0.0 -0.0 0.0 0.0 0.0 
2768.06 743.687 -1025.54 -12.9454 49.0806 11.6136 3.85556 0.288112 0.20841 3.85554 0.274267 0.226321 3.85664 0.238836 0.26344 3.85665 0.277444 0.222414 -9.59918 17.8727 -0.244732 -9.9711 33.8082 4.32772 -0.0 0.0 -0.0 0.279455 22.1415 2.96258 -37.2083 -24.5708 66.2826 0.583424 -16.12 0.0826189 17.028 0.282518 -2.14884 0.886847 12.8777 10.9441 -0.0 0.0 -0.0 12.1096 19.9287 -24.1907 -5.89923 19.5774 -58.9604 2.05982 45.5724 -0.865363 38.6499 0.280909 4.83691 0.257295 -3.25966 -3.06966 0.0 0.0 0.0 34.3216 -2.68962 -8.56134 -47.4113 -1.00426 7.00281 14.583 20.5189 -2.09094 2.91466 -0.0 -0.0 -0.0 0.0 -0.0 8.75493 2.87988 -3.9449 -7.15435 -0.227771 -1.07364 15.1829 23.0599 2.45745 15.1655 -0.0 -0.0 0.0 0.0 0.0 
2757.39 741.974 -1028.93 -13.5242 48.7002 12.5575 3.7976 0.172659 0.25593 3.79763 0.156023 0.266398 3.79834 0.115763 0.286199 3.79826 0.15951 0.264325 -12.3407 16.1598 -0.798246 -12.9731 31.2001 4.1544 -0.0 0.0 -0.0 0.394605 21.8591 3.09662 -36.9029 -24.3786 67.0925 0.556115 -15.4021 0.0752009 18.0643 0.278953 -2.28115 1.14263 11.3049 12.0237 -0.0 0.0 -0.0 12.3945 20.0638 -24.8373 -5.23651 20.0911 -58.0843 2.13677 46.6218 -0.920806 39.8144 0.339642 4.97375 0.128236 -3.18858 -2.18607 0.0 0.0 0.0 35.0107 0.738649 -10.835 -40.297 -0.485767 6.0398 7.35195 21.3489 -1.08323 0.579289 -0.0 -0.0 -0.0 0.0 -0.0 9.08154 2.05128 -4.19724 -6.17785 -0.204616 -0.925581 17.3249 23.9373 2.79957 15.1888 -0.0 -0.0 0.0 0.0 0.0 
2747.14 741.469 -1036.99 -14.5086 49.3818 13.7382 3.64428 0.142032 0.3284 3.64433 0.120847 0.336772 3.64502 0.069819 0.35092 3.64487 0.124364 0.335489 -13.9247 14.8526 -1.19414 -14.6244 29.0572 3.79081 -0.0 0.0 -0.0 0.609614 20.8392 3.30559 -37.4935 -25.0165 66.7361 0.534665 -14.8348 0.0696063 18.8341 0.274757 -2.37939 1.34546 9.83821 12.8178 -0.0 0.0 -0.0 12.742 20.3809 -25.6181 -3.83752 20.9949 -57.8715 2.18523 47.2624 -0.956212 40.1984 0.359622 5.01862 0.143126 -2.50835 -2.00243 0.0 0.0 0.0 36.8543 2.2585 -13.0039 -29.3925 0.0668537 4.461 0.213564 21.2544 -0.0320396 -2.34595 0.0 0.0 -0.0 0.0 -0.0 9.04497 4.09254 -4.82565 -6.33724 -0.208568 -0.949723 21.293 29.0027 3.5687 15.868 -0.0 -0.0 0.0 0.0 0.0 
2732.57 738.902 -1039.99 -15.1839 49.3026 15.0816 3.6806 0.101824 0.417625 3.68069 0.0750434 0.423258 3.6812 0.0120224 0.429691 3.68096 0.0797325 0.4224 -13.1665 14.378 0.159036 -13.708 27.2782 4.67646 -0.0 0.0 -0.0 0.626657 20.3007 3.27973 -37.0794 -24.4457 67.1884 0.561814 -15.5524 0.0767218 19.3791 0.270989 -2.4489 1.39619 9.69183 13.0993 -0.0 0.0 -0.0 12.5755 20.7531 -25.2044 -2.97059 20.5712 -58.0401 2.20396 47.506 -0.969998 41.1289 0.409279 5.12678 0.204037 -2.54112 -2.42003 0.0 0.0 0.0 37.147 4.08045 -14.3052 -24.0333 0.225995 3.65422 -3.02941 21.1802 0.457434 -4.2781 0.0 0.0 -0.0 0.0 -0.0 8.91715 6.18272 -5.36173 -7.01756 -0.224679 -1.05288 23.0977 30.8706 3.92269 17.4065 -0.0 -0.0 0.0 0.0 0.0 
2718.68 734.188 -1045.47 -15.684 49.5566 15.5473 3.76558 0.0820418 0.386436 3.76566 0.0572858 0.390873 3.76601 -0.000198342 0.395048 3.7658 0.0621942 0.390122 -13.1851 14.0525 0.271833 -13.6982 26.5898 4.67447 -0.0 0.0 -0.0 0.937484 18.743 3.59919 -36.6789 -24.3776 67.6008 0.575748 -15.9188 0.0805007 19.9878 0.265998 -2.52649 1.4864 9.84701 13.7526 -0.0 0.0 -0.0 12.4647 21.0458 -24.9254 -2.13853 20.8518 -58.3269 2.23962 47.9634 -0.996386 41.874 0.450309 5.21281 0.265333 -2.40612 -2.77096 0.0 0.0 0.0 37.3793 4.95649 -14.8991 -17.964 0.314316 2.72754 -6.91934 21.5307 1.0534 -5.67948 0.0 0.0 -0.0 0.0 -0.0 8.10466 7.19319 -5.4111 -6.70454 -0.217419 -1.00539 26.9841 31.2265 4.48795 18.9286 -0.0 -0.0 0.0 0.0 0.0 
2701.0 729.354 -1050.16 -15.654 49.8987 15.6085 3.8116 0.105267 0.542636 3.81176 0.0705249 0.548235 3.81235 -0.00955021 0.55267 3.81193 0.0778522 0.547242 -12.7944 13.9006 0.614807 -13.2522 26.0552 4.84594 -0.0 0.0 -0.0 0.930198 17.8197 3.50723 -36.4529 -24.1681 67.5294 0.585486 -16.174 0.0831924 20.4018 0.262133 -2.57922 1.53366 9.81147 14.0531 -0.0 0.0 -0.0 12.371 21.3033 -24.6889 -1.56163 20.8402 -58.5849 2.25463 48.1536 -1.00755 42.315 0.475118 5.26348 0.306638 -2.32752 -3.0128 0.0 0.0 0.0 37.7033 5.45087 -15.3349 -13.3674 0.315685 2.02249 -8.80664 21.7207 1.3455 -6.64551 0.0 0.0 -0.0 0.0 -0.0 7.52192 8.06703 -5.56587 -7.60712 -0.23765 -1.14242 28.7474 31.4534 4.73666 19.8356 -0.0 -0.0 0.0 0.0 0.0 
2675.88 721.821 -1058.08 -14.6613 49.9929 14.91 3.55683 0.110024 0.519438 3.55698 0.0767484 0.525386 3.55762 -0.0024462 0.530956 3.55723 0.081438 0.524679 -12.4793 13.6348 0.93255 -12.8838 25.3217 4.98034 -0.0 0.0 -0.0 0.780216 17.2985 3.22988 -37.0487 -24.1464 67.9452 0.619131 -17.0509 0.0928116 20.7262 0.258838 -2.62053 1.57189 9.75393 14.2862 -0.0 0.0 -0.0 12.2866 21.2737 -24.4966 -1.63783 20.6764 -58.4338 2.29704 48.6834 -1.03928 42.3286 0.475891 5.26504 0.399802 -2.02247 -3.50642 0.0 0.0 0.0 38.6926 4.81261 -15.8339 -8.64774 0.258291 1.30077 -10.4713 21.3753 1.60114 -7.36033 0.0 0.0 -0.0 0.0 -0.0 5.59092 9.10409 -4.39746 -9.752 -0.277046 -1.46918 30.1357 31.0839 4.89162 21.2585 -0.0 -0.0 0.0 0.0 0.0 
2655.35 718.427 -1063.56 -15.9509 50.6659 16.7407 3.66224 -0.0406621 0.338056 3.6623 -0.062091 0.334784 3.66191 -0.11073 0.321985 3.66177 -0.0584896 0.335432 -11.5426 13.4885 0.86544 -11.8676 24.9957 4.6481 -0.0 0.0 -0.0 0.742691 16.8116 3.12627 -36.7856 -24.1159 68.3371 0.646539 -17.7591 0.10101 20.9508 0.256421 -2.64911 1.5942 9.71395 14.4201 -0.0 0.0 -0.0 12.0879 21.3573 -24.033 -1.75257 19.4621 -58.1664 2.28543 48.5395 -1.03057 42.269 0.472515 5.25821 0.417994 -1.8541 -3.55824 0.0 0.0 0.0 37.8429 4.7164 -16.1165 -3.9317 0.141795 0.586617 -10.4998 21.1793 1.60432 -7.48277 0.0 0.0 -0.0 0.0 -0.0 5.5081 9.6883 -4.60272 -11.2699 -0.297521 -1.70119 31.1179 30.7564 4.99305 22.2684 -0.0 -0.0 0.0 0.0 0.0 
